<?xml version="1.0" standalone="no"?>
<!DOCTYPE svg PUBLIC "-//W3C//DTD SVG 20010904//EN"
 "http://www.w3.org/TR/2001/REC-SVG-20010904/DTD/svg10.dtd">
<svg version="1.0" xmlns="http://www.w3.org/2000/svg"
 width="512.000000pt" height="512.000000pt" viewBox="0 0 512.000000 512.000000"
 preserveAspectRatio="xMidYMid meet">
<metadata>
Created by potrace 1.11, written by Peter Selinger 2001-2013
</metadata>
<g transform="translate(0.000000,512.000000) scale(0.100000,-0.100000)"
fill="#000000" stroke="none">
<path d="M2409 4896 c-2 -2 -40 -6 -84 -10 -44 -3 -91 -8 -105 -11 -14 -3 -54
-10 -90 -16 -345 -55 -743 -239 -1040 -481 -202 -165 -333 -310 -491 -543 -39
-58 -129 -215 -123 -215 3 0 -3 -12 -14 -27 -59 -85 -181 -458 -207 -633 -2
-14 -6 -41 -9 -60 -16 -95 -24 -220 -22 -370 l1 -165 -104 -145 c-57 -79 -108
-157 -114 -173 -13 -38 -1 -105 26 -144 26 -38 101 -74 144 -69 38 5 86 30
112 58 l20 21 9 -24 c6 -13 29 -77 52 -142 74 -211 213 -456 366 -647 75 -94
267 -289 329 -335 22 -17 49 -38 60 -48 11 -11 72 -54 136 -97 293 -196 651
-332 989 -374 25 -3 68 -9 95 -12 63 -8 321 -8 400 0 33 3 83 9 110 11 162 17
440 92 607 164 94 41 99 42 175 36 43 -3 137 -20 208 -37 367 -87 629 -5 826
259 63 84 170 337 154 363 -2 4 -33 15 -67 25 -35 9 -67 19 -71 22 -4 3 25 37
65 76 109 106 190 219 250 347 21 46 50 122 53 140 0 3 6 21 13 40 6 19 20 84
31 144 32 182 18 512 -29 696 -5 19 -14 54 -20 78 -6 23 -17 42 -24 42 -8 0
-40 -27 -73 -61 l-59 -61 0 84 c-1 81 -9 202 -19 263 -28 181 -51 281 -97 425
-261 810 -987 1437 -1823 1575 -55 9 -111 18 -125 21 -31 6 -415 16 -421 10z"/>
</g>
</svg>
