<svg viewBox="0 -22 512.00381 512" xmlns="http://www.w3.org/2000/svg" xmlns:xlink="http://www.w3.org/1999/xlink"><linearGradient id="a" gradientUnits="userSpaceOnUse" x1="107.73064344" x2="438.35161704" y1="85.62545488" y2="416.24542456"><stop offset="0" stop-color="#62e1fb"/><stop offset="1" stop-color="#00a2f3"/></linearGradient><linearGradient id="b"><stop offset="0" stop-color="#00a2f3" stop-opacity="0"/><stop offset="1" stop-color="#0075cd"/></linearGradient><linearGradient id="c" gradientUnits="userSpaceOnUse" x1="391.98958752" x2="324.68478288" xlink:href="#b" y1="345.13777096" y2="137.69175784"/><linearGradient id="d" gradientUnits="userSpaceOnUse" x1="174.16103376" x2="39.8787024" xlink:href="#b" y1="341.14216936" y2="206.859838"/><linearGradient id="e" gradientUnits="userSpaceOnUse" x1="286.61312472" x2="222.99672216" xlink:href="#b" y1="135.56947096" y2="71.9530684"/><linearGradient id="f"><stop offset="0" stop-color="#cfffb4"/><stop offset="1" stop-color="#8ee388"/></linearGradient><linearGradient id="g" gradientUnits="userSpaceOnUse" x1="306.95354784" x2="504.47581176" xlink:href="#f" y1="148.64050936" y2="346.16176936"/><linearGradient id="h" gradientUnits="userSpaceOnUse" x1="59.92899264" x2="161.9252568" xlink:href="#f" y1="226.90711648" y2="328.90338064"/><linearGradient id="i" gradientUnits="userSpaceOnUse" x1="226.37390904" x2="343.22618136" xlink:href="#f" y1="370.900366" y2="487.75263832"/><linearGradient id="j" gradientUnits="userSpaceOnUse" x1="232.98673008" x2="268.21829856" xlink:href="#f" y1="81.9420724" y2="117.17364088"/><linearGradient id="k"><stop offset="0" stop-color="#8ee388" stop-opacity="0"/><stop offset="1" stop-color="#4b9345"/></linearGradient><linearGradient id="l" gradientUnits="userSpaceOnUse" x1="126.26903016" x2="52.34839272" xlink:href="#k" y1="345.77526016" y2="271.85562664"/><radialGradient id="m" cx="255.79579248" cy="233.6896" gradientUnits="userSpaceOnUse" r="216.92301792"><stop offset=".0013" stop-color="#d5ecf3" stop-opacity="0"/><stop offset=".4242" stop-color="#d3eaf1" stop-opacity=".423529"/><stop offset=".5765" stop-color="#cce4eb" stop-opacity=".576471"/><stop offset=".6851" stop-color="#c1d9e0" stop-opacity=".686275"/><stop offset=".7729" stop-color="#b0c9d1" stop-opacity=".772549"/><stop offset=".8482" stop-color="#9ab4bd" stop-opacity=".847059"/><stop offset=".9147" stop-color="#7e9ba5" stop-opacity=".913725"/><stop offset=".9735" stop-color="#5f7d88" stop-opacity=".972549"/><stop offset="1" stop-color="#4e6d79"/></radialGradient><linearGradient id="n"><stop offset="0" stop-color="#acfcd9"/><stop offset="1" stop-color="#53d6be"/></linearGradient><linearGradient id="o" gradientUnits="userSpaceOnUse" x1="319.50054" x2="-40.14275688" xlink:href="#n" y1="200.73893776" y2="386.76129808"/><linearGradient id="p" gradientUnits="userSpaceOnUse" x1="45.27878808" x2="45.27878808" y1="179.39660248" y2="278.40018112"><stop offset="0" stop-color="#53d6be" stop-opacity="0"/><stop offset=".2513" stop-color="#51b4a7" stop-opacity=".25098"/><stop offset=".5767" stop-color="#508d8e" stop-opacity=".576471"/><stop offset=".8378" stop-color="#4e767f" stop-opacity=".839216"/><stop offset="1" stop-color="#4e6d79"/></linearGradient><linearGradient id="q" gradientUnits="userSpaceOnUse" x1="196.0836348" x2="27.23232216" xlink:href="#n" y1="259.39697944" y2="549.4023616"/><linearGradient id="r" gradientUnits="userSpaceOnUse" x1="421.70662344" x2="371.4684588" xlink:href="#b" y1="354.938038" y2="304.69886944"/><linearGradient id="s" gradientTransform="matrix(1.00222 .05823 -.05823 1.00222 26.973 -41.952)" gradientUnits="userSpaceOnUse" x1="424.209" x2="411.859" xlink:href="#f" y1="324.014" y2="437.344"/><linearGradient id="t" gradientTransform="matrix(1.00222 .05823 -.05823 1.00222 26.973 -41.952)" gradientUnits="userSpaceOnUse" x1="417.925" x2="382.859" xlink:href="#k" y1="355.928" y2="243.425"/><linearGradient id="u" gradientTransform="matrix(-.10742 .9982 -.9982 -.10742 918.707 35.257)" gradientUnits="userSpaceOnUse" x1="426.987" x2="440.947" xlink:href="#f" y1="424.317" y2="539.802"/><linearGradient id="v" gradientTransform="matrix(-.10742 .9982 -.9982 -.10742 918.707 35.257)" gradientUnits="userSpaceOnUse" x1="421.504" x2="499.355" xlink:href="#k" y1="474.119" y2="316.46"/><path d="m456.960938 233.691406c0 111.097656-90.066407 201.164063-201.167969 201.164063-111.097657 0-201.164063-90.066407-201.164063-201.164063 0-111.101562 90.066406-201.167968 201.164063-201.167968 111.101562 0 201.167969 90.066406 201.167969 201.167968zm0 0" fill="url(#a)"/><path d="m456.960938 233.6875c0 12.761719-1.1875 25.242188-3.464844 37.34375-3.121094 16.667969-8.308594 32.609375-15.277344 47.550781-11.132812 23.898438-26.835938 45.246094-45.984375 62.917969l-87.25-87.25c-2.9375-1.695312-5.199219-4.414062-6.289063-7.679688l-44.554687-44.738281c-9.890625-8.433593-16.160156-20.972656-16.160156-34.988281v-33.8125c0-15.214844 5.65625-29.105469 15-39.671875 10.484375-11.902344 25.617187-19.597656 42.574219-20.269531.792968-.027344 1.605468-.046875 2.410156-.046875h37.15625c7.714844 0 13.964844-6.25 13.964844-13.96875v-2.535157c0-7.71875 6.261718-13.96875 13.980468-13.96875h25.503906c1.042969.917969 2.074219 1.847657 3.101563 2.785157.976563.898437 1.953125 1.808593 2.910156 2.71875.046875.039062.085938.078125.125.125 2.007813 1.925781 3.972657 3.886719 5.90625 5.886719l.199219.203124c34.78125 36.148438 56.148438 85.269532 56.148438 139.398438zm0 0" fill="url(#c)"/><path d="m335.027344 418.644531c-24.320313 10.433594-51.09375 16.207031-79.230469 16.207031-33.027344 0-64.199219-7.957031-91.695313-22.066406-.25-.480468-.488281-.957031-.738281-1.445312-.621093.027344-1.242187.066406-1.867187.085937-.179688.011719-.351563.019531-.535156.019531l-82.253907-82.253906c-.480469-.890625-.957031-1.78125-1.417969-2.671875-1.40625-2.691406-2.746093-5.417969-4.027343-8.175781-.835938-1.800781-1.648438-3.628906-2.445313-5.457031-.027344-.066407-.046875-.125-.074218-.183594-.382813-.910156-.765626-1.816406-1.140626-2.726563-.496093-1.207031-.976562-2.414062-1.445312-3.628906-.265625-.679687-.527344-1.359375-.773438-2.039062-.011718-.011719-.019531-.027344-.019531-.039063-.355469-.945312-.699219-1.90625-1.042969-2.859375-.335937-.921875-.652343-1.847656-.976562-2.777344-.679688-1.992187-1.320312-3.992187-1.933594-6.003906-.296875-.964844-.59375-1.945312-.871094-2.917968-.289062-.988282-.566406-1.984376-.835937-2.96875-.257813-.929688-.496094-1.847657-.734375-2.777344-.058594-.199219-.105469-.402344-.15625-.601563-.21875-.851562-.429688-1.707031-.628906-2.554687-.019532-.058594-.03125-.125-.050782-.183594-.226562-.976562-.449218-1.945312-.667968-2.917969-.230469-1.007812-.441406-2.019531-.648438-3.046875-.203125-.957031-.394531-1.925781-.585937-2.890625-.011719-.058593-.019531-.113281-.027344-.171875-.183594-.96875-.363281-1.933594-.539063-2.910156-.132812-.746094-.257812-1.496094-.371093-2.242188-.097657-.546874-.183594-1.101562-.269531-1.644531-.152344-.996093-.304688-1.984375-.441407-2.980469-.121093-.871093-.238281-1.75-.34375-2.632812-.132812-1.042969-.257812-2.085938-.371093-3.136719-.125-1.042969-.230469-2.097656-.328126-3.152343-.105468-1.050782-.191406-2.113282-.277343-3.167969-.054688-.699219-.105469-1.398438-.152344-2.105469-.03125-.34375-.046875-.679688-.066406-1.015625-.03125-.371094-.050781-.734375-.070313-1.101563-.046875-.714843-.085937-1.433593-.113281-2.152343-.046875-1.074219-.097656-2.144531-.125-3.21875-.027344-.9375-.058594-1.875-.066406-2.8125-.03125-1.207031-.039063-2.421875-.039063-3.640625 0-2.707032.058594-5.417969.164063-8.097656.027343-.851563.066406-1.695313.113281-2.546876.058594-1.175781.132812-2.355468.21875-3.523437.03125-.582031.078125-1.164063.125-1.742187.066406-.871094.132812-1.75.21875-2.621094.144531-1.523438.296875-3.042969.46875-4.566406.097656-.84375.203125-1.6875.308594-2.519532.105468-.84375.21875-1.683594.335937-2.519531.074219-.554687.152344-1.117187.238281-1.671875.074219-.5.144532-.988281.230469-1.484375.09375-.613281.191407-1.226563.296875-1.839844.09375-.59375.191406-1.1875.304688-1.78125.097656-.554687.191406-1.109375.296875-1.664062.125-.710938.257812-1.417969.402343-2.117188.191407-.984375.382813-1.96875.59375-2.957031 5.820313-1.578125 11.949219-2.421875 18.277344-2.421875 20.582032 0 39.078125 8.910156 51.855469 23.082031zm0 0" fill="url(#d)"/><path d="m453.496094 271.03125c-3.121094 16.667969-8.308594 32.609375-15.277344 47.550781l-185.238281-185.222656-23.40625-23.410156c-5.675781-4.085938-9.371094-10.75-9.371094-18.273438 0-12.4375 10.078125-22.519531 22.515625-22.519531 7.523438 0 14.1875 3.695312 18.277344 9.375zm0 0" fill="url(#e)"/><path d="m456.960938 233.6875c0 21.789062-3.464844 42.773438-9.878907 62.425781h-135.148437c-7.714844 0-13.96875-6.257812-13.96875-13.976562v-15.316407c0-3.859374-1.566406-7.355468-4.09375-9.878906-2.53125-2.527344-6.023438-4.089844-9.882813-4.089844-25.40625 0-46.007812-20.601562-46.007812-46.007812v-33.816406c0-33.132813 26.851562-59.984375 59.988281-59.984375h37.152344c7.71875 0 13.96875-6.253907 13.96875-13.96875v-2.539063c0-7.714844 6.261718-13.964844 13.976562-13.964844h25.503906c41.929688 36.859376 68.390626 90.898438 68.390626 151.117188zm0 0" fill="url(#g)"/><path d="m147.023438 259.410156c0 38.054688-30.441407 68.996094-68.316407 69.78125-15.355469-28.414062-24.078125-60.9375-24.078125-95.503906 0-14.285156 1.484375-28.203125 4.320313-41.644531v-.011719c5.820312-1.578125 11.945312-2.421875 18.273437-2.421875 38.554688 0 69.800782 31.25 69.800782 69.800781zm0 0" fill="url(#h)"/><path d="m255.792969 434.855469c39.96875 0 77.214843-11.65625 108.523437-31.757813-12.75-13.777344-30.984375-22.402344-51.238281-22.402344-.691406 0-1.375.007813-2.0625.03125-15.203125.4375-30.285156-3.449218-42.816406-12.070312-11.234375-7.730469-24.839844-12.253906-39.507813-12.253906-33.304687 0-61.140625 23.328125-68.105468 54.53125 28.347656 15.257812 60.765624 23.921875 95.207031 23.921875zm0 0" fill="url(#i)"/><path d="m265.230469 91.671875c0 12.433594-10.082031 22.515625-22.515625 22.515625s-22.515625-10.082031-22.515625-22.515625c0-12.4375 10.082031-22.519531 22.515625-22.519531s22.515625 10.082031 22.515625 22.519531zm0 0" fill="url(#j)"/><path d="m254.917969 433.484375-164.589844-161.746094-.589844-.425781c-1.054687-1.570312-2.382812-2.992188-4.003906-4.167969l-28.070313-20.292969-1.292968-.933593c6.304687 104.363281 92.703125 187.109375 198.546875 187.566406zm0 0" fill="url(#l)"/><path d="m472.71875 233.691406c0 119.800782-97.121094 216.921875-216.921875 216.921875-119.804687 0-216.925781-97.121093-216.925781-216.921875 0-119.804687 97.121094-216.925781 216.925781-216.925781 119.800781 0 216.921875 97.121094 216.921875 216.925781zm0 0" fill="url(#m)"/><path d="m255.796875 467.378906c-128.855469 0-233.6875-104.832031-233.6875-233.6875 0-128.855468 104.832031-233.691406 233.6875-233.691406s233.6875 104.832031 233.6875 233.691406c0 128.855469-104.832031 233.6875-233.6875 233.6875zm0-433.871094c-110.382813 0-200.183594 89.800782-200.183594 200.183594 0 110.378906 89.800781 200.179688 200.183594 200.179688 110.378906 0 200.179687-89.800782 200.179687-200.179688 0-110.382812-89.800781-200.183594-200.179687-200.183594zm0 0" fill="url(#o)"/><path d="m55.613281 233.691406c0-24.8125 4.550781-48.574218 12.835938-70.515625h-35.460938c-7.058593 22.257813-10.878906 45.945313-10.878906 70.515625 0 12.199219.941406 24.183594 2.753906 35.882813h33.976563c-2.117188-11.644531-3.226563-23.636719-3.226563-35.882813zm0 0" fill="url(#p)"/><path d="m64.417969 292.429688 1.988281 1.441406c7.382812 5.335937 17.679688 3.683594 23.023438-3.699219 5.335937-7.375 3.675781-17.691406-3.695313-23.027344l-28.070313-20.292969-6.511718-4.699218c-.070313-.058594-.152344-.105469-.234375-.164063-.164063-.117187-.332031-.226562-.507813-.332031-.238281-.152344-.484375-.304688-.71875-.445312-.1875-.105469-.378906-.210938-.566406-.308594-.257812-.140625-.515625-.257813-.777344-.375-.175781-.082032-.363281-.175782-.554687-.257813-.421875-.164062-.847657-.332031-1.269531-.460937-.203126-.058594-.390626-.105469-.589844-.164063-.28125-.082031-.566406-.152343-.859375-.222656-.203125-.050781-.402344-.085937-.601563-.121094-.316406-.058593-.636718-.105469-.941406-.140625-.175781-.023437-.355469-.046875-.53125-.070312-.503906-.035156-1-.070313-1.507812-.070313-.507813 0-1.011719.035157-1.507813.070313-.1875.023437-.363281.046875-.550781.070312-.191406.023438-.378906.035156-.554688.070313-.105468.011719-.210937.046875-.304687.058593-.320313.0625-.625.132813-.933594.203126-.210937.046874-.421875.105468-.636719.164062-.316406.082031-.625.1875-.941406.292969-.1875.070312-.386719.140625-.589844.210937-.292968.128906-.601562.261719-.894531.390625-.1875.09375-.390625.175781-.578125.28125-.28125.140625-.550781.292969-.824219.449219-.1875.117188-.386719.234375-.578125.351562-.246094.164063-.492187.332032-.726562.507813-.203125.140625-.402344.28125-.589844.433594-.226562.179687-.4375.355469-.648438.542969-.1875.164062-.375.339843-.566406.519531-.199218.1875-.386718.386719-.589844.597656-.164062.179687-.339843.367187-.503906.554687-.191406.226563-.367187.460938-.542968.683594-.105469.128906-.210938.246094-.304688.378906l-3.710938 5.121094-21.285156 29.445313c-5.332031 7.386719-3.683594 17.691406 3.699219 23.027343 7.375 5.335938 17.691406 3.675782 23.027344-3.699218l.976562-1.367188.289063-.398437c27.996094 97.691406 118.109375 169.394531 224.671875 169.394531v-33.503906c-89.945313 0-166.214844-59.636719-191.375-141.441406zm0 0" fill="url(#q)"/><path d="m454.273438 256.703125c-6.789063 2.226563-14.464844 4.183594-23.152344 5.699219-42.359375 7.386718-82.605469 44.152344-82.289063 100.664062.007813 1.351563.730469 2.347656 1.699219 2.882813 0 0 10.601562 10.726562 10.707031 10.863281-5.472656 10.394531-10.238281 21.882812-13.925781 34.53125 57.84375-29.855469 99.21875-87.132812 106.960938-154.640625zm0 0" fill="url(#r)"/><path d="m504.316406 227.625c-.535156-2.035156-3.199218-2.511719-4.417968-.800781-6.359376 8.914062-24.667969 27.886719-68.777344 35.578125-42.359375 7.386718-82.605469 44.152344-82.289063 100.664062.019531 3.421875 4.59375 4.609375 6.234375 1.605469 18.546875-34.019531 47.773438-53.085937 69.171875-63.132813 2.539063-1.191406 4.558594 2.394532 2.222657 3.941407-28.398438 18.824219-72.394532 58.402343-84.1875 127.8125-.460938 2.710937.4375 5.484375 2.445312 7.367187 3.515625 3.289063 9.226562 7.183594 12.789062 2.109375 2.804688-3.984375 2.03125-7.136719 4.296876-16.996093 2.308593-10.058594 11.691406-16.984376 21.976562-16.109376 51.816406 4.410157 157.515625-41.597656 120.535156-182.039062zm0 0" fill="url(#s)"/><path d="m501.332031 225.871094c-3.734375 12.066406-18.757812 46.132812-74.871093 79.609375-28.398438 18.828125-72.398438 58.402343-84.1875 127.816406-.460938 2.710937.4375 5.484375 2.445312 7.363281 3.515625 3.289063 9.222656 7.183594 12.789062 2.113282 2.804688-3.984376 2.03125-7.140626 4.296876-16.996094 2.308593-10.058594 11.691406-16.988282 21.976562-16.113282 51.816406 4.410157 157.515625-41.59375 120.535156-182.039062-.371094-1.410156-1.757812-2.046875-2.984375-1.753906zm0 0" fill="url(#t)"/><path d="m349.074219 439.972656c10.292969-18.632812 51.847656-81.398437 132.152343-53.707031 1.226563.421875 1.910157 1.730469 1.566407 2.980469-1.210938 4.386718-4.464844 14.789062-10.945313 26.828125-15.617187 29.027343-49.308594 43.269531-81.054687 34.386719-11.058594-3.09375-24.324219-5.515626-38.851563-5.566407-2.511718-.007812-4.082031-2.722656-2.867187-4.921875zm0 0" fill="url(#u)"/><path d="m349.074219 439.972656c-.535157.96875-.53125 2.039063-.140625 2.929688 20.402344-8.910156 49.363281-14.269532 76.382812-18.605469 30.445313-4.886719 52.070313-29.429687 57.507813-36.179687-.164063-.832032-.746094-1.558594-1.597657-1.851563-80.304687-27.691406-121.859374 35.074219-132.152343 53.707031zm0 0" fill="url(#v)"/></svg>